<?xml version="1.0" encoding="UTF-8"?>
<!DOCTYPE svg PUBLIC "-//W3C//DTD SVG 1.1//EN" "http://www.w3.org/Graphics/SVG/1.1/DTD/svg11.dtd">
<!-- Creator: CorelDRAW -->
<svg xmlns="http://www.w3.org/2000/svg" xml:space="preserve" width="1747px" height="817px" version="1.1" style="shape-rendering:geometricPrecision; text-rendering:geometricPrecision; image-rendering:optimizeQuality; fill-rule:evenodd; clip-rule:evenodd"
viewBox="0 0 17470 8174.5"
 xmlns:xlink="http://www.w3.org/1999/xlink"
 xmlns:xodm="http://www.corel.com/coreldraw/odm/2003">
 <defs>
  <style type="text/css">
   <![CDATA[
    .fil0 {fill:#0A9479}
    .fil1 {fill:#09B382;fill-rule:nonzero}
    .fil2 {fill:#0A9479;fill-rule:nonzero}
   ]]>
  </style>
 </defs>
 <g id="Layer_x0020_1">
  <metadata id="CorelCorpID_0Corel-Layer"/>
  <g id="_8WF">
   <path class="fil0" d="M9480.5 530c0.4,31.5 -26,59.5 -56.6,60.4 -28.6,0.7 -53.2,-25.4 -54,-57.3 -0.9,-34.2 22.7,-59.3 55.5,-58.9 30.8,0.2 54.9,24.6 55.1,55.8zm1937.4 2152.9c0,882.6 -426.2,1665.6 -1084,2154.5 -127,54.6 -454.4,165.7 -816.8,88.1 -109.3,-23.3 -211.1,-70.1 -309.7,-122.9 -311.7,-166.9 -543,-408.3 -683.5,-734.2 -55.7,-129.4 -89.4,-263.6 -86.2,-405.5 1.4,-58.4 2.9,-116.7 3.6,-175.1 0.3,-15.9 -0.5,-32.1 -3.8,-47.5 -6.8,-31.6 -39.7,-59.1 -70.6,-61.4 -28.9,-2.1 -59,16.1 -72.4,46.5 -6.3,14.3 -12,30.4 -11.9,45.7 1,102.3 -0.3,205.1 6.8,307.1 10.1,144 51.4,284.3 115.8,413.4 28.6,57.3 58.9,112 93,176.1 -158.5,-26.2 -288,-68.8 -383.2,-106.8 -95.7,-38.3 -269.3,-117.4 -456.2,-264.1 -74.8,-58.6 -145.3,-123.4 -211.5,-194.2 -171.1,-183.4 -299.1,-394.5 -389.8,-628.7 -65,-167.9 -102,-342 -115.9,-520.6 -6.4,-83.1 -4.4,-167.1 -1.5,-250.6 2.5,-72.6 8.1,-145.4 18.7,-217.2 10.8,-73.3 28.3,-145.6 44.9,-217.7 33.6,-146.7 89,-285.7 158.5,-418.4 46.6,-89.1 99.4,-175.3 154.2,-259.6 75.4,-116 163.5,-222.5 264.6,-317.1 70.5,-66 146.8,-126 220.6,-188.8 7,-6 15.6,-11.2 20.3,-18.7 4.5,-7.2 9.3,-20.3 5.9,-24.9 -5,-6.8 -17.4,-12.3 -26,-11.5 -14.1,1.4 -28.2,7.2 -41.4,13 -198,87.8 -378.3,203.4 -540.9,346.5 -149.2,131.3 -276.8,281.5 -387.2,446.8 -140.7,210.4 -243.9,437.3 -308.3,682 -39.1,148.6 -59.3,300.2 -66.4,453.4 -5.6,118.7 -0.1,237.8 14.2,355.8 14.2,117.3 34.6,233.5 67.3,346.9 81.1,281.5 212.4,537.5 396.9,765.1 53.4,65.8 110.9,128.5 169.8,189.6 162.1,168.1 354.9,300.9 565.3,406.3 119.1,59.6 244.2,107.1 372.3,143.9 177.9,51.3 359,86.1 544.9,91.8 162,5.2 323.9,1 483.8,-29.5 28.3,-5.3 56.4,0.5 83,11.6 308,127.3 541.9,167.4 718.7,160.6 -345.7,162.4 -731.6,253.2 -1138.8,253.2 -1481.7,0 -2682.9,-1201.2 -2682.9,-2682.9 0,-1481.7 1201.2,-2682.9 2682.9,-2682.9 1481.7,0 2682.9,1201.2 2682.9,2682.9zm-2439.9 -1044.9c69,248 76.3,497.1 15.8,751.9 8.6,-5 12.4,-6.2 14.8,-8.8 61.3,-64 99.5,-140.4 117.1,-226.4 19,-92.6 9.8,-184.5 -16,-274.8 -25.6,-90 -68.6,-170.8 -131.7,-241.9zm57.8 1444.9c16.5,-0.9 33.2,-0.3 49.3,-3.1 106.7,-18 197.9,-66.2 270.4,-146.6 122.1,-135.4 167.4,-297 157.8,-476.3 -0.1,-2.5 -4.5,-4.6 -9.6,-9.4 -81.1,267.9 -233.8,480 -467.9,635.4zm-480.7 718.7c-6.9,-59.4 3.2,-107.7 23.2,-154.9 32.1,-75.8 85,-137.2 136.8,-199.5 111.6,-134.2 177.3,-287.7 197.6,-461.4 27.6,-236 -9.8,-462.3 -94.9,-682.5 -45.2,-116.9 -100.5,-228.5 -173.7,-330.6 -24.4,-34.1 -52.8,-65.3 -79.3,-97.9 -2.5,1.1 -5,2.2 -7.5,3.4 0.5,9.6 0,19.5 1.5,28.9 16.5,102.6 -2.2,200.7 -38.9,295.9 -50,129.7 -124.8,245.9 -200.6,361.3 -70.7,107.7 -139.5,216.1 -187.3,336.8 -45.5,115 -69.1,234.1 -66.9,357.4 1.8,108 30.3,211.1 68.5,311.8 14.8,39 35.7,76.4 31.8,120.9 -1,11 5.9,22.7 10.9,39.7 -132.8,-45.9 -239.4,-123.5 -333.7,-218.8 -145.7,-147.1 -232.4,-324.9 -261.3,-529.7 -20.7,-146.1 -0.4,-288.7 45.3,-429.6 -6.1,241.8 89.8,433.6 284.6,588.9 -9.5,-39.9 -17.7,-71.5 -24.5,-103.2 -20.7,-96.6 -64.6,-184.4 -101.1,-275.2 -66.3,-165.1 -74.9,-334.8 -27.5,-506.1 22,-79.8 62.9,-151.9 105.2,-222.6 78.4,-131 159.7,-260.3 237,-391.8 87.9,-149.6 154.7,-308.5 194.3,-477.6 21.8,-92.9 34.6,-187.6 36.9,-283.6 2.5,-100.9 -1,-201.7 -18.1,-300.9 -14.4,-83.2 -36.6,-165.1 -56.1,-247.4 -6.7,-28 -15.8,-55.4 -18.7,-85.9 10.7,12.9 21.2,26 32.2,38.5 142.9,162.6 286,324.7 428.7,487.4 203.9,232.5 413.6,460 603,704.9 152.5,197.3 282.1,408.2 374.6,640.6 45.7,114.9 76,233.6 93.7,356.2 34.9,241.9 1.1,474.4 -101.2,694.7 -112.5,242.5 -292.6,421.2 -537.7,531.2 -147,65.8 -301.9,97.9 -462.8,100.6 -36.8,0.6 -73.7,0.1 -114,0.1zm1815.3 -557.7c17.8,32.2 37.6,63.4 53.1,96.6 83.5,178 104.6,364.9 77.9,558.8 -20,145.5 -69.7,279.7 -149.4,402.2 -101.2,155.3 -234.4,273.7 -410.3,338.3 -135.5,49.7 -272.4,53.9 -411.4,10.3 -100.5,-31.6 -193.8,-76.5 -281.7,-133.8 -6.6,-4.4 -13.3,-8.6 -19.8,-13.2 -2.1,-1.6 -3.4,-4.1 -6.2,-7.6 52.4,-70.1 122.4,-119.7 197.8,-161.1 131.7,-72.3 272.7,-116.7 422.9,-128.1 65.7,-4.9 131.7,-4.8 193.3,-6.8 -12.4,-13 -35.1,-26.5 -67.3,-34.1 -297.9,-70.1 -562.2,-9.2 -788.1,201.8 -27.9,26.1 -56.1,51.9 -84.8,78.4 -8.2,-56.1 2.6,-112 22.7,-166.4 56.9,-153.1 162.8,-261.4 306.8,-335.4 102.3,-52.4 211.8,-83.2 322.3,-111.8 115.9,-30.2 228.9,-68.3 329.5,-135.5 144.6,-96.4 236,-230.2 275,-399.6 2.1,-9 1.8,-18.5 3.1,-27.6 1.2,-7.7 3.1,-15.2 4.6,-22.9 3.3,-0.8 6.6,-1.7 10,-2.5zm-2852.2 -1280.7c-21.2,21.9 -44.2,46 -65.1,67.7 -21.6,-22.8 -44.6,-47.1 -64.9,-68.5 20.3,-21 43.3,-44.7 64.6,-66.6 20.1,20.7 43.2,44.6 65.4,67.4zm-191.3 701.4c-21.2,22 -44.3,46 -65.1,67.8 -21.6,-22.9 -44.6,-47.2 -64.9,-68.6 20.3,-20.9 43.3,-44.7 64.6,-66.6 20,20.7 43.2,44.6 65.4,67.4zm3433.4 -150c-135.6,40.7 -174.6,92.9 -198.6,235.3 -3.9,-16.3 -7.8,-32.5 -11.5,-48.7 -11.3,-48.5 -28.2,-95.1 -67.4,-127.7 -21,-17.4 -47.2,-28.6 -71.8,-41.2 -11.5,-5.8 -24.7,-8.3 -41.5,-13.8 37,-19.1 71.2,-34.2 102.5,-53.6 32.9,-20.3 51.4,-53.2 62.8,-89.3 11.4,-36.1 20.8,-72.8 30.6,-107.5 11.7,121.4 58.3,218.2 194.9,246.5zm-629.5 400.5c-19,-21.5 -40.1,-45.3 -61,-68.7 18.9,-19.6 40.9,-42.3 61.7,-63.9 19.1,20.7 40.9,44.5 60.6,65.9 -19.6,21.4 -41,44.7 -61.3,66.7zm158.9 -924.3c0.1,-39.9 27.5,-68.8 65.6,-69.5 36.2,-0.6 73.2,35.5 72.2,70.4 -1.1,36.4 -32.8,67.7 -69.1,68.3 -41.7,0.8 -68.9,-26.6 -68.7,-69.2zm527.6 -168.6c-43.3,0.6 -73.6,-29.8 -75,-74.9 -1.2,-43.8 29.5,-75.6 73.4,-76.3 42.3,-0.6 76.9,31.6 78.3,72.7 1.4,43.8 -32,78 -76.7,78.5zm-856.5 -86.8c-19,-21.4 -40.2,-45.3 -61,-68.7 18.9,-19.6 40.8,-42.3 61.7,-63.9 19.1,20.7 40.8,44.5 60.6,65.9 -19.7,21.4 -41.1,44.7 -61.3,66.7zm278.6 -379.6c27.9,0.2 50,21.8 50.1,49.2 0.1,30 -25.6,54.4 -56.2,53.2 -25.8,-0.9 -44.6,-21.7 -45,-49.7 -0.4,-30.4 21.4,-52.8 51.1,-52.7zm-743 -177.1c0.1,-39.7 33.9,-76.7 70.5,-77.4 41.8,-0.6 79.4,33.2 80.4,72.4 1,43.6 -37.6,82.4 -80.5,81 -40,-1.3 -70.6,-34.5 -70.4,-76zm275.4 -396.9c178.3,-71.3 171.6,-116.5 204.2,-246.4 12.5,60.2 22.9,114.3 58.2,159.6 35.1,44.9 86,62.1 137.2,81.1 -53.2,19.2 -103.3,39.3 -139.3,82.6 -35.7,43.1 -46.5,96.5 -59.5,150.6 -13,-122.7 -75,-201.4 -200.8,-227.5z"/>
   <path class="fil1" d="M8978 1638c69,248 76.3,497.1 15.8,751.9 8.6,-5 12.4,-6.2 14.8,-8.8 61.3,-64 99.5,-140.4 117.1,-226.4 19,-92.6 9.8,-184.5 -16,-274.8 -25.6,-90 -68.6,-170.8 -131.7,-241.9zm1296.7 1275.2c-19,-21.5 -40.2,-45.4 -61,-68.8 18.9,-19.5 40.9,-42.2 61.7,-63.8 19.1,20.7 40.8,44.4 60.6,65.9 -19.7,21.4 -41.1,44.7 -61.3,66.7zm-170.1 -1179.7c-19,-21.5 -40.2,-45.4 -61,-68.8 18.9,-19.5 40.9,-42.2 61.7,-63.8 19.1,20.7 40.9,44.4 60.6,65.9 -19.6,21.4 -41,44.7 -61.3,66.7zm278.6 -379.6c28,0.1 50.1,21.8 50.2,49.2 0,29.9 -25.7,54.3 -56.2,53.2 -25.9,-1 -44.7,-21.8 -45,-49.8 -0.5,-30.4 21.3,-52.8 51,-52.6zm-2721.1 607.3c-21.2,22 -44.3,46 -65.2,67.8 -21.5,-22.9 -44.5,-47.1 -64.8,-68.6 20.3,-20.9 43.3,-44.7 64.5,-66.6 20.1,20.7 43.3,44.6 65.5,67.4zm-191.3 701.5c-21.2,21.9 -44.3,46 -65.2,67.7 -21.5,-22.8 -44.5,-47.1 -64.8,-68.5 20.3,-21 43.3,-44.7 64.5,-66.6 20.1,20.7 43.3,44.6 65.5,67.4zm2153.6 -2134.6c0.3,31.4 -26.1,59.5 -56.7,60.3 -28.6,0.8 -53.2,-25.3 -54,-57.2 -0.8,-34.2 22.8,-59.3 55.5,-59 30.9,0.3 54.9,24.6 55.2,55.9zm809.1 1460.7c0.2,-39.8 27.5,-68.8 65.7,-69.4 36.2,-0.6 73.2,35.5 72.1,70.4 -1.1,36.3 -32.7,67.6 -69.1,68.3 -41.6,0.8 -68.8,-26.6 -68.7,-69.3zm-789.7 -834.3c9.6,-30.3 37.4,-54.6 67,-55.1 41.7,-0.7 79.4,33.1 80.3,72.4 1.1,43.6 -37.5,82.4 -80.5,80.9 -32.3,-1 -58.6,-23 -67.3,-53.3 2.8,-8.2 4.2,-16.8 4,-25.7 -0.2,-6.6 -1.4,-13.1 -3.5,-19.2zm1317.4 665.8c-34.7,0.4 -61.1,-19 -70.9,-50 2.7,-8.2 4,-17.2 3.7,-26.6 -0.3,-8.3 -1.9,-16.2 -4.7,-23.6 8.8,-30.2 35.3,-50.5 70.3,-51 42.2,-0.6 76.8,31.5 78.2,72.7 1.4,43.7 -31.9,78 -76.6,78.5zm-57.1 692.4c-135.5,40.6 -174.6,92.9 -198.6,235.2 -3.8,-16.2 -7.7,-32.4 -11.4,-48.7 -10.6,-45.3 -26,-88.9 -60,-121 29,-27.2 69,-46.4 126.2,-63.6 -55.6,-11.5 -96.3,-34.4 -125.8,-65.7 21.6,-19.9 35.1,-46.6 44.2,-75.2 11.4,-36.2 20.8,-72.8 30.6,-107.5 11.7,121.3 58.2,218.1 194.8,246.5zm-858.1 -1804.2c48.2,-43 52.9,-91.5 73.9,-175 12.5,60.1 22.9,114.3 58.2,159.6 35,44.9 85.9,62 137.2,81.1 -53.3,19.2 -103.4,39.2 -139.4,82.6 -35.7,43.1 -46.5,96.5 -59.4,150.6 -7.3,-68.9 -30,-123.8 -70.8,-163.4 34.5,-33.5 78.9,-51 125.7,-67.9 -45.8,-17 -91.3,-32.5 -125.4,-67.6zm468.2 2533.5c17.8,32.1 37.6,63.4 53.1,96.6 83.5,178 104.6,364.9 78,558.8 -20,145.4 -69.7,279.6 -149.5,402.2 -101.1,155.2 -234.3,273.7 -410.3,338.3 -93.9,34.4 -188.5,47 -284,36.9 46.9,-6.2 93.6,-17.9 140.2,-35 175.9,-64.6 309.1,-183 410.3,-338.3 79.7,-122.5 129.4,-256.7 149.4,-402.2 22.8,-165.7 10.7,-326.3 -45.4,-480.6 17,-38.9 30.5,-80.1 40.6,-123.7 2.1,-9 1.7,-18.5 3,-27.6 1.2,-7.8 3.1,-15.3 4.7,-22.9 3.3,-0.8 6.6,-1.7 9.9,-2.5zm-711.1 897.7c-174.1,17.4 -333.9,90.9 -478.1,225.5 -27.9,26.1 -56,51.9 -84.8,78.4 -6.7,-46.2 -0.6,-92.4 13.1,-137.6 164.9,-126.9 348.8,-180.1 549.8,-166.3zm-1368.2 -708.2c1.1,-2.7 2.3,-5.4 3.4,-8 13.5,-30.5 43.5,-48.6 72.5,-46.5 30.9,2.2 63.8,29.7 70.6,61.3 3.3,15.4 4,31.7 3.8,47.5 -0.7,50.8 -1.9,101.5 -3.1,152.2l-3.8 8.7c-20,47.2 -30.1,95.5 -23.2,154.9l35.2 0.1c13.2,90.9 40.5,178.9 77.4,264.7 140.6,325.9 371.9,567.4 683.5,734.2 98.7,52.8 201.7,94.4 309.8,123 50.4,13.4 101.2,22.9 152.5,28 -93.4,2.7 -193.5,-4 -296.4,-26.1 -109.3,-23.3 -211.1,-70.1 -309.7,-122.9 -311.7,-166.9 -543,-408.3 -683.5,-734.2 -55.7,-129.4 -89.4,-263.6 -86.2,-405.5 1.4,-58.4 2.9,-116.7 3.6,-175.1 0.3,-15.9 -0.5,-32.1 -3.8,-47.5 -0.6,-3 -1.5,-5.9 -2.6,-8.8zm1852.4 1424.8c12.1,-6.8 24.4,-12.1 36.8,-14.7 -11,4.6 -23.3,9.5 -36.8,14.7zm-413.5 256.3l-2.9 1.4c-6.7,-0.2 -13.3,-0.4 -19.9,-0.8 7.7,-0.1 15.3,-0.3 22.8,-0.6zm-724.4 -162.9c-113.4,16.6 -227.6,21.2 -342,19.9 88.6,-3.7 176.9,-12.5 264.7,-29.2 26.2,-5 52.4,-0.3 77.3,9.3zm-1362.3 -4153.6c38.3,-19.8 77.4,-38.6 117.1,-56.2 13.3,-5.9 27.3,-11.7 41.4,-13 8.6,-0.8 21,4.6 26.1,11.5 3.3,4.6 -1.5,17.7 -5.9,24.8 -4.7,7.6 -13.3,12.7 -20.4,18.7 -73.7,62.8 -150,122.8 -220.7,188.9 -101,94.5 -189.1,201.1 -264.5,317.1 -54.7,84.3 -107.5,170.5 -154.1,259.5 -69.5,132.8 -124.9,271.8 -158.6,418.4 -16.5,72.2 -34,144.5 -44.8,217.7 -10.7,71.8 -16.3,144.7 -18.8,217.3 -2.8,83.4 -4.9,167.4 1.6,250.5 13.8,178.7 50.9,352.7 115.9,520.6 90.6,234.2 218.7,445.3 389.8,628.7 188.2,201.7 412,353.6 667.6,458.3 72.1,29.6 145.7,53.8 220.6,73.7l18.8 35.1c-158.5,-26.2 -288,-68.8 -383.2,-106.8 -95.7,-38.3 -269.3,-117.4 -456.2,-264.1 -74.8,-58.6 -145.3,-123.4 -211.5,-194.2 -171.1,-183.4 -299.1,-394.5 -389.8,-628.7 -65,-167.9 -102,-342 -115.9,-520.6 -6.4,-83.1 -4.4,-167.1 -1.5,-250.6 2.5,-72.6 8.1,-145.4 18.7,-217.2 10.8,-73.3 28.3,-145.6 44.9,-217.7 33.6,-146.7 89,-285.7 158.5,-418.4 46.6,-89.1 99.4,-175.3 154.2,-259.6 75.4,-116 163.5,-222.5 264.6,-317.1 65.9,-61.7 136.9,-118.2 206.1,-176.6zm1252.5 2286.6l0.7 -2.7c231.5,-155.2 382.8,-366.3 463.4,-632.5 5.1,4.8 9.5,6.9 9.6,9.4 9.6,179.3 -35.7,340.9 -157.8,476.3 -72.5,80.4 -163.7,128.6 -270.4,146.6 -14.9,2.5 -30.2,2.2 -45.5,2.9zm-337.4 -1020.9c-7.4,47.2 -20.8,93.6 -38.4,139.3 -50,129.6 -124.8,245.8 -200.6,361.3 -70.7,107.7 -139.6,216.1 -187.4,336.7 -45.5,115.1 -69,234.2 -66.9,357.4 1.9,108.1 30.3,211.2 68.5,311.9 1.9,4.9 3.9,9.9 5.9,14.8 0.3,44.4 0.9,88.8 2.7,133.1 -43.6,-17.5 -84.3,-38.4 -122.7,-62.4 -5.7,-29.1 -19.2,-56 -29.7,-83.6 -38.2,-100.7 -66.7,-203.8 -68.5,-311.8 -2.2,-123.3 21.4,-242.4 66.9,-357.4 47.8,-120.7 116.6,-229.1 187.3,-336.8 75.8,-115.4 150.6,-231.6 200.6,-361.3 36.7,-95.2 55.4,-193.3 38.9,-295.9 -1.5,-9.4 -1,-19.3 -1.5,-28.9 2.5,-1.2 5,-2.3 7.5,-3.4 26.5,32.6 54.9,63.8 79.3,97.9 20.8,29 40.1,58.7 58.1,89.1zm-982.8 865.7c-7.4,-98.5 3.1,-195.5 26.7,-291.5 9.4,42.7 22.6,85.2 39.5,127.3 36.5,90.8 80.4,178.6 101.1,275.2 6.8,31.7 15,63.3 24.5,103.2 -81.2,-64.8 -145.2,-135.8 -191.8,-214.2zm716 -2454.5c-11,-47.3 -23,-94.3 -34.3,-141.5 -6.7,-28.1 -15.8,-55.6 -18.6,-86 10.7,12.8 21.1,26 32.2,38.6 142.9,162.4 286,324.6 428.6,487.2 204,232.5 413.7,460 603,705 152.5,197.3 282.2,408.1 374.7,640.6 45.7,114.8 76,233.6 93.7,356.1 34.9,241.9 1.1,474.5 -101.2,694.8 -112.6,242.5 -292.7,421.2 -537.8,531.1 -146.9,65.9 -301.8,98 -462.8,100.6 -30.4,0.6 -60.7,0.3 -93,0.2 142.8,-8 280.5,-39.9 412,-98.8 245.1,-110 425.2,-288.7 537.7,-531.2 102.3,-220.3 136.1,-452.8 101.2,-694.7 -17.7,-122.6 -48,-241.3 -93.7,-356.2 -92.5,-232.4 -222.1,-443.3 -374.6,-640.6 -189.4,-244.9 -399.1,-472.4 -603,-704.9 -87.9,-100.2 -176,-200.3 -264.1,-300.3z"/>
  </g>
  <g id="_8WT">
   <path class="fil2" d="M0 7245.9l0 903.4 325.4 0 0 -745.8 874.6 0 0 -320.4 -853.8 0c69.7,-241 296.4,-407.5 559.6,-407.5l498.9 0 0 -332.9 -501.4 0c-506.5,0 -903.3,396.7 -903.3,903.2z"/>
   <path class="fil2" d="M3111.7 6342.6l0 900.8c0,328.4 -267.2,595.5 -595.6,595.5 -328.3,0 -595.5,-267.1 -595.5,-595.5l0 -900.8 -333.1 0 0 903.2c0,512.1 416.6,928.7 928.6,928.7 513.4,0 931.1,-414.3 931.1,-923.5l-2.6 -908.4 -332.9 0z"/>
   <path class="fil2" d="M4657.4 6317.4c-512,0 -928.6,416.5 -928.6,928.5l0 903.4 333 0 0 -900.8c0,-328.5 267.2,-595.7 595.6,-595.7 328.3,0 595.5,267.2 595.5,595.7l0 900.8 333.1 0 0 -903.4c0,-512 -416.6,-928.5 -928.6,-928.5z"/>
   <polygon class="fil2" points="7228,6342.6 6833,6342.6 6228.3,7053.6 6228.3,6342.6 5905.4,6342.6 5905.4,8149.2 6228.3,8149.2 6228.3,7438.3 6824.9,8142.6 6830.4,8149.2 7238.6,8149.2 6464.2,7245.8 "/>
   <path class="fil2" d="M7323.5 7245.9c0,506.6 400.2,903.4 911,903.4l501.4 0 0 -333.1 -498.9 0c-267.2,0 -495,-168.5 -562.5,-412.7l856.6 0 0 -320.4 -853.7 0c69.7,-241 296.4,-407.5 559.6,-407.5l498.9 0 0 -332.9 -501.4 0c-510.8,0 -911,396.7 -911,903.2z"/>
   <path class="fil2" d="M9882.8 6317.4c-512.1,0 -928.6,416.5 -928.6,928.5l0 903.4 333 0 0 -900.8c0,-328.5 267.1,-595.7 595.6,-595.7 328.3,0 595.5,267.2 595.5,595.7l0 900.8 333 0 0 -903.4c0,-512 -416.5,-928.5 -928.5,-928.5z"/>
   <polygon class="fil2" points="12453.3,6342.6 12058.3,6342.6 11453.6,7053.6 11453.6,6342.6 11130.7,6342.6 11130.7,8149.2 11453.6,8149.2 11453.6,7438.3 12050.2,8142.6 12055.7,8149.2 12463.8,8149.2 11689.5,7245.8 "/>
   <path class="fil2" d="M12548.9 7245.9c0,506.6 400.2,903.4 910.9,903.4l501.4 0 0 -333.1 -498.8 0c-267.2,0 -495.1,-168.5 -562.5,-412.7l856.6 0 0 -320.4 -853.7 0c69.7,-241 296.3,-407.5 559.6,-407.5l498.8 0 0 -332.9 -501.4 0c-510.7,0 -910.9,396.7 -910.9,903.2z"/>
   <path class="fil2" d="M14542.9 6675.6l163.3 0c279.1,0 330.2,73.8 330.2,219 0,69.6 -42.9,186 -330.2,186l-163.3 0 0 -405zm829 211.4c0,-248.3 -115,-544.3 -663.2,-544.3l-486.2 0 0 1806.6 320.4 0 0 -745.7 9.2 0 492.9 745.7 388.6 0 -511.5 -766c290.4,-54.9 449.8,-230.3 449.8,-496.3z"/>
   <path class="fil2" d="M16541.4 6317.4c-512,0 -928.6,416.5 -928.6,928.5l0 903.4 333 0 0 -900.8c0,-328.5 267.2,-595.7 595.6,-595.7 328.4,0 595.5,267.2 595.5,595.7l0 900.8 333.1 0 0 -903.4c0,-512 -416.5,-928.5 -928.6,-928.5z"/>
  </g>
 </g>
</svg>
